# xmcd
#
# Track frame offsets:
#	192
#	22647
#	44365
#	65960
#	84912
#	104337
#	122340
#	140687
#	157217
#	175322
#	197435
#
# Disc length: 2800 seconds
#
# Revision: 3
# Processed by: cddbd v1.5.1PL2 Copyright (c) Steve Scherf et al.
# Submitted via: audiograbber 1.83.01
#
DISCID=8f0aee0b
DTITLE=Dallas Holm - Completely Taken In
DYEAR=1993
DGENRE=Kristen Country
TTITLE0=Set Your Mind on Things Above
TTITLE1=Completely Taken In
TTITLE2=I Have Hope
TTITLE3=Your Love Comes to Me
TTITLE4=Get a Life
TTITLE5=Come on in
TTITLE6=If All I Ever Knew
TTITLE7=One Lord
TTITLE8=Walk on the Water
TTITLE9=Though You Slay Me
TTITLE10=I'd Rather Have Jesus
EXTD=YEAR: 1993
EXTT0=
EXTT1=
EXTT2=
EXTT3=
EXTT4=
EXTT5=
EXTT6=
EXTT7=Over Us All
EXTT8=
EXTT9=
EXTT10=
PLAYORDER=
